<svg
	 xmlns="http://www.w3.org/2000/svg" viewBox="0 0 850.39 850.39"
	><style type="text/css">
	.st0{fill:#C6BFB5;}
	.st1{fill:#1B101A;}
	.st2{fill:#C5BFB5;}
</style><g><rect class="st0" width="850.39" height="850.39"/><path class="st1" d="M560.4,234.13c-0.04-1.23-0.18-2.31-1.08-3.23c-0.19-0.19-0.41-0.35-0.62-0.52
			c-3.91-3.21-8.7-5.31-13.35-7.19c-10.86-4.38-22.44-6.97-33.95-8.94c-21.18-3.62-42.71-5.04-64.17-5.5
			c-26.81-0.58-53.76,0.1-80.46,2.71c-16.25,1.59-32.56,3.85-48.37,8.02c-7.64,2.02-15.37,4.46-22.38,8.18
			c-1.29,0.68-2.55,1.42-3.72,2.28c-0.42,0.31-0.89,0.6-1.25,0.98c-1.15,1.19-1.08,2.75-1.07,4.29c0.02,3.39,0.33,6.77,0.8,10.13
			c3.77,26.5,21.09,48.42,42.61,63.31c10.56,7.31,22.05,12.98,33.57,18.59c9.98,4.86,20.16,9.88,28.88,16.83
			c9.11,7.26,16.2,16.47,19.7,27.67c4.33,13.89,4.38,28.95,5,43.37c1.34,31.27,1.27,62.59,0.98,93.88
			c-0.14,15.01,0.42,30.31-1.57,45.23c-1.59,11.89-5.5,23.26-12.08,33.31c-11.56,17.68-29.98,29.57-49.09,37.76
			c-9.22,3.95-18.81,7.05-28.5,9.66c-1.82,0.49-2.94,2.49-2.44,4.3c0.55,2.01,2.43,2.72,4.3,2.44c0.47-0.07,0.94-0.13,1.4-0.2
			c0.5-0.07,1.01-0.14,1.51-0.21c0.11-0.01,0.24-0.03,0.42-0.06c0.43-0.06,0.85-0.11,1.27-0.17c4.77-0.62,9.56-1.19,14.34-1.72
			c15.07-1.67,30.19-2.95,45.34-3.7c32.98-1.63,65.97,0.33,98.8,3.55c7.78,0.76,15.56,1.58,23.32,2.56
			c0.21,0.04,0.41,0.07,0.61,0.07c0,0,0,0,0.01,0c1.88,0.24,3.5-1.78,3.5-3.5c0-0.6-0.14-1.11-0.38-1.56
			c-0.36-0.82-1.06-1.51-2.19-1.82c-20.2-5.46-40.2-13.18-57.04-25.84c-8.26-6.21-15.63-13.81-21.17-22.55
			c-6.42-10.14-10.16-21.58-11.59-33.47c-1.83-15.13-1.31-30.59-1.45-45.8c-0.14-15.58-0.22-31.17-0.09-46.75
			c0.13-15.72,0.47-31.43,1.17-47.13c0.64-14.24,0.75-29.09,5.27-42.75c7.49-22.64,28.94-34.06,49.05-43.82
			c23.55-11.44,46.84-24.52,61.75-46.83c7.27-10.87,12.18-23.31,13.84-36.3C560.22,240.54,560.49,237.32,560.4,234.13z
			 M335.03,641.29C334.79,641.32,334.82,641.32,335.03,641.29L335.03,641.29z"/></g></svg>