<?xml version="1.0" encoding="UTF-8"?>
<!DOCTYPE svg PUBLIC "-//W3C//DTD SVG 1.1//EN" "http://www.w3.org/Graphics/SVG/1.1/DTD/svg11.dtd">
<!-- Creator: CorelDRAW -->
<svg xmlns="http://www.w3.org/2000/svg" xml:space="preserve" width="300mm" height="300mm" version="1.1" style="shape-rendering:geometricPrecision; text-rendering:geometricPrecision; image-rendering:optimizeQuality; fill-rule:evenodd; clip-rule:evenodd"
viewBox="0 0 30000 30000"
 xmlns:xlink="http://www.w3.org/1999/xlink"
 xmlns:xodm="http://www.corel.com/coreldraw/odm/2003">
 <defs>
  <style type="text/css">
   <![CDATA[
    .str0 {stroke:#D7D8D8;stroke-width:20;stroke-miterlimit:22.9256}
    .str1 {stroke:#2B2A29;stroke-width:20;stroke-miterlimit:22.9256}
    .fil0 {fill:none}
    .fil1 {fill:#2B2A29;fill-rule:nonzero}
   ]]>
  </style>
 </defs>
 <g id="Слой_x0020_1">
  <metadata id="CorelCorpID_0Corel-Layer"/>
  <path class="fil0 str0" d="M8179.6 4092.97l12800.85 0c110,0 200,-90 200,-200l0 -3763.14c0,-110 -90,-200 -200,-200l-12800.85 0c-110,0 -200.01,90 -200.01,200l0 3763.14c0,110 90.01,200 200.01,200z"/>
 </g>
 <g id="Слой_x0020_1_0">
  <metadata id="CorelCorpID_1Corel-Layer"/>
  <path class="fil0" d="M27322.13 2749.55c-6992.43,3818.13 -18287.38,3819.15 -25228,2.29"/>
  <path class="fil1" d="M5638.29 3421.53l465.66 159.85 -23.46 68.33 -370.53 -127.2 -61.69 179.75 171.24 58.78c63.26,21.72 111.82,43.84 145.8,66.57 34.03,22.59 57.58,51.29 70.76,86.27 13.22,34.84 13.57,70.26 1.18,106.32 -10.1,29.42 -27.56,54.18 -52.49,74.1 -24.98,20.07 -56.18,32.69 -93.76,37.83 -37.41,5.18 -94.78,-5.42 -171.72,-31.83l-280.89 -96.43 199.9 -582.34zm-82.16 549.12l189.77 65.15c51.25,17.59 92.51,22.36 124.02,14.24 31.36,-8.18 52.91,-29.12 64.5,-62.87 8.28,-24.14 7.83,-46.71 -1.32,-67.88 -9.16,-21.18 -25.83,-38.88 -50.06,-53.1 -24.39,-14.29 -68.07,-32.16 -130.99,-53.76l-126.67 -43.48 -69.25 201.7zm888.45 291.54c-40.06,12.79 -76.84,19.09 -110.28,19.22 -33.44,0.13 -67.61,-5.21 -102.71,-15.93 -57.71,-17.62 -98.62,-42.56 -122.69,-74.93 -24.11,-32.23 -30.71,-66.17 -19.88,-101.67 6.37,-20.83 18.09,-38.08 35.01,-51.8 17.07,-13.67 36.63,-22.68 58.71,-27.32 22.25,-4.61 45.94,-6.06 71.38,-4.14 18.67,1.66 46.26,6.19 82.63,13.39 73.97,15.1 129.7,22.97 166.53,23.74 3.37,-9.77 5.45,-16.02 6.25,-18.62 8.96,-29.35 6.84,-52.62 -6.34,-69.83 -17.81,-23.27 -49.27,-41.72 -94.16,-55.42 -42.02,-12.83 -74.92,-16.28 -98.47,-10.44 -23.71,5.79 -44.85,22.42 -63.77,49.91l-84.06 -36.46c17.17,-27.87 37.67,-48.43 61.59,-61.52 23.9,-13.07 54.58,-19.28 92.12,-18.92 37.31,0.46 78.85,7.6 124.09,21.41 44.89,13.71 80.21,29.14 105.75,46.38 25.4,17.19 42.88,34.22 52.07,51.26 9.18,17.05 13.44,36.33 12.78,57.85 -0.9,13.22 -6.16,35.88 -15.91,67.82l-29.29 95.95c-20.48,67.03 -31.56,109.95 -33.32,129.04 -1.94,19.04 0.25,38.44 6.02,58.18l-93.15 -28.44c-4.29,-17.95 -4.59,-37.52 -0.9,-58.71zm41.89 -162.55c-35.66,0.8 -87.04,-4.99 -154.09,-17.37 -38.1,-6.99 -65.55,-10.13 -82.38,-9.42 -16.81,0.71 -30.85,4.97 -42.21,12.58 -11.42,7.76 -19.1,17.85 -22.95,30.46 -5.81,19.05 -1.77,37.81 12.4,56.08 14.16,18.26 38.51,32.75 73.11,43.31 34.26,10.46 66.66,13.76 97.2,9.74 30.37,-3.91 55.18,-14.47 74.06,-31.63 14.6,-13.37 26.65,-35.91 36.31,-67.58l8.55 -26.17zm118.65 442.1l161.75 -595.85 81.75 22.2 -15.35 56.56c25.16,-16.63 51.44,-27.17 78.75,-31.49 27.15,-4.36 58.11,-1.89 92.69,7.49 45.28,12.3 82.59,32.52 112,60.86 29.48,28.19 48.28,61.96 56.69,101.07 8.19,39.2 6.82,79.22 -4.34,120.31 -11.89,43.84 -32.34,80.76 -61.31,110.76 -28.96,29.86 -64.54,49.16 -106.79,57.89 -42.02,8.64 -83.57,7.46 -124.44,-3.63 -29.98,-8.14 -55.49,-20.56 -76.38,-37.22 -21.07,-16.71 -36.99,-34.84 -48.06,-54.64l-57.04 210.1 -89.92 -24.41zm184.33 -355.67c-14.99,55.18 -12.26,99.73 7.98,133.58 20.41,33.92 50.18,56.26 89.35,66.89 39.85,10.82 77.63,6.37 113.33,-13.35 35.88,-19.66 61.49,-58.15 77.08,-115.55 14.86,-54.77 12.19,-99.46 -8.18,-134.24 -20.36,-34.78 -49.71,-57.3 -88.19,-67.75 -38.16,-10.36 -75.81,-4.99 -112.95,15.97 -37.35,21.05 -63.4,59.12 -78.42,114.45zm818.57 -20.53l90.63 21.68 -43.2 180.64 251.23 60.09 43.21 -180.65 90.63 21.68 -103.81 434.04 -90.63 -21.67 46.01 -192.35 -251.24 -60.09 -46 192.36 -90.63 -21.68 103.8 -434.05zm861.4 502.71l92.27 29.58c-23.87,41.47 -58.51,70.46 -103.67,86.74 -45.16,16.29 -98.87,18.07 -161.26,5.19 -78.45,-16.2 -136.6,-48.7 -174.46,-97.48 -37.87,-48.66 -49.47,-108.56 -34.83,-179.44 15.13,-73.27 50.05,-125.48 104.87,-156.3 54.88,-30.96 119.35,-38.72 193.49,-23.41 71.72,14.81 126.22,46.7 163.46,95.79 37.26,49.11 48.52,109.68 33.66,181.69 -0.9,4.35 -2.43,10.92 -4.58,19.54l-400.74 -82.75c-6.44,48.57 2.56,88.77 27.38,120.39 24.65,31.57 59.52,52.1 104.28,61.34 33.35,6.89 63.34,5.62 89.8,-3.85 26.63,-9.43 50.03,-28.45 70.33,-57.03zm-274.08 -180.41l299.64 61.88c3.63,-37.6 -2.28,-67.5 -17.31,-89.78 -22.97,-34.45 -57.7,-56.55 -103.83,-66.07 -41.83,-8.64 -79.25,-4.51 -112.47,12.34 -33.04,16.89 -55.05,44.1 -66.03,81.63zm1247.2 -129.4l81.16 15.25c-8.87,28.85 -20.68,48 -35.07,57.39 -14.37,9.39 -31.5,13.92 -51.56,13.87 -20.03,-0.2 -58.55,-5.28 -115.36,-15.34 -75.42,-13.36 -127.9,-16.54 -157.45,-9.56 -29.38,7.03 -52.54,22.44 -69.14,46.28 -16.61,23.98 -29.13,56.26 -37.8,97.07 28.06,-23.84 58.68,-39.96 92.1,-48.45 33.22,-8.53 69.38,-9.25 107.95,-2.42 70.89,12.56 126.12,42.71 165.69,90.47 39.4,47.74 53.2,105.35 41.22,172.94 -9.07,51.23 -28.15,91.22 -57.41,119.81 -29.25,28.58 -61.56,49.06 -96.87,61.29 -35.14,12.26 -80.51,13.4 -135.76,3.61 -64.29,-11.39 -112.05,-32.07 -143.45,-62.23 -31.4,-30.16 -53.28,-65.48 -65.82,-105.97 -12.36,-40.47 -10.44,-106.94 5.87,-199.09 20.53,-115.87 58.5,-189.63 113.76,-221.32 55.25,-31.69 132.98,-38.6 233.07,-20.88 62.39,11.05 97.8,16.45 106.61,16.27 8.64,-0.22 14.73,-3.22 18.26,-8.99zm-73.79 398.4c8.08,-45.58 1.32,-85.35 -20.09,-119.27 -21.41,-33.93 -56.37,-55.11 -104.84,-63.69 -50.57,-8.96 -92.21,-0.47 -125.14,25.57 -32.9,25.9 -53.9,64.54 -63.02,116.05 -9,50.8 -0.77,92.43 24.85,124.77 25.45,32.31 60.59,52.51 104.9,60.36 45.53,8.06 85.13,-1.08 118.97,-27.26 33.85,-26.17 55.25,-65.02 64.37,-116.53zm141.42 430.52l90.44 -610.75 83.79 12.41 -8.58 57.98c23.04,-19.48 47.89,-33.05 74.5,-40.55 26.44,-7.53 57.49,-8.72 92.91,-3.48 46.43,6.88 85.86,22.56 118.41,47.24 32.59,24.53 55.23,55.84 68.19,93.69 12.75,37.96 16.11,77.87 9.87,119.98 -6.65,44.94 -22.6,84.01 -47.84,117.21 -25.24,33.07 -58.3,56.42 -99.23,70.08 -40.7,13.52 -82.11,17.24 -124,11.04 -30.72,-4.55 -57.52,-13.88 -80.22,-27.96 -22.91,-14.11 -40.84,-30.24 -54.18,-48.59l-31.89 215.35 -92.17 -13.65zm141.15 -374.91c-8.37,56.56 -0.43,100.48 23.67,131.72 24.26,31.27 56.46,49.95 96.6,55.89 40.85,6.05 77.84,-2.82 110.97,-26.6 33.32,-23.76 54.22,-64.99 62.93,-123.83 8.32,-56.13 0.39,-100.2 -23.93,-132.34 -24.31,-32.14 -56.11,-51.05 -95.56,-56.89 -39.11,-5.79 -75.87,3.98 -110.29,29.16 -34.61,25.3 -55.99,66.18 -64.39,122.89zm464.53 66.04c12.08,-81.52 48.95,-137.78 110.79,-168.76 51.44,-25.7 110.92,-33.55 178.14,-23.6 74.53,11.04 132.69,39.93 174.29,86.66 41.44,46.56 57.05,104.94 46.7,174.84 -8.4,56.7 -25.46,99.67 -51.21,129.04 -25.75,29.36 -60.03,50.07 -102.85,62.13 -42.64,12.08 -87.78,14.53 -135.08,7.52 -76.11,-11.27 -134.63,-40.07 -175.74,-86.58 -41.08,-46.5 -56.03,-106.96 -45.04,-181.25zm94.24 14.1c-8.36,56.43 0.58,100.92 26.82,133.35 26.38,32.6 62.53,52.29 108.79,59.14 45.73,6.77 85.86,-1.63 120.6,-25.32 34.54,-23.71 56.08,-64.42 64.63,-122.12 8.06,-54.44 -1.18,-97.98 -27.59,-130.42 -26.4,-32.6 -62.38,-52.27 -107.76,-58.99 -46.26,-6.85 -86.53,1.38 -121.22,24.79 -34.51,23.42 -55.93,63.29 -64.27,119.57zm544.05 -151.61l92.51 11.08 -22.07 184.42 256.49 30.71 22.09 -184.42 92.51 11.08 -53.05 443.12 -92.53 -11.07 23.52 -196.38 -256.49 -30.71 -23.52 196.37 -92.52 -11.07 53.06 -443.13zm568.26 68.78l92.8 8.54 -31.22 338.95 288.98 -315.2 99.64 9.17 -40.93 444.41 -92.79 -8.54 31.03 -336.81 -288.44 313.1 -99.99 -9.21 40.92 -444.41zm532.38 669.05l56.62 -614.81 84.35 7.77 -5.36 58.36c21.92,-20.72 45.98,-35.63 72.15,-44.59 25.98,-8.97 56.92,-11.88 92.57,-8.6 46.74,4.31 86.98,17.8 120.84,40.64 33.89,22.69 58.22,52.71 73.24,89.78 14.83,37.21 20.39,76.87 16.49,119.26 -4.17,45.24 -17.95,85.13 -41.32,119.67 -23.37,34.41 -55.1,59.55 -95.2,75.44 -39.9,15.75 -81.04,21.75 -123.21,17.87 -30.93,-2.85 -58.2,-10.69 -81.66,-23.5 -23.62,-12.82 -42.44,-27.94 -56.76,-45.53l-19.95 216.78 -92.8 -8.54zm120.26 -382.12c-5.24,56.94 5.11,100.35 30.9,130.21 25.95,29.88 59.13,46.76 99.54,50.48 41.13,3.79 77.56,-7.11 109.34,-32.68 31.95,-25.56 50.54,-67.88 55.99,-127.11 5.21,-56.51 -5.13,-100.07 -31.19,-130.82 -26.05,-30.75 -58.84,-47.88 -98.56,-51.54 -39.36,-3.62 -75.52,8.16 -108.49,35.2 -33.17,27.17 -52.27,69.17 -57.53,126.26zm455.09 427.71l-5.93 -70.48c20.12,5.79 37.58,9.23 52.72,10.23 20.77,1.38 37.52,-0.4 50.21,-5.16 12.87,-4.75 23.6,-11.94 32.19,-21.43 6.31,-7.2 17.05,-25.3 32.06,-54.47 2.04,-4.03 5.09,-10.01 9.5,-17.9l-178.63 -460.49 99.32 6.55 97.47 264.68c12.82,33.46 23.75,68.65 33.17,105.47 12.98,-33.19 27.86,-65.81 44.83,-97.73l134.06 -251.98 92.8 6.13 -237.15 439.36c-25.59,47.29 -45.23,79.6 -58.95,97.23 -18.19,23.64 -38.41,40.54 -60.47,50.72 -22.26,10.17 -48.17,14.2 -77.74,12.25 -17.95,-1.19 -37.84,-5.52 -59.46,-12.98zm912.03 -265.97l95.86 14.02c-16.73,44.83 -46.13,79.12 -88,102.6 -41.88,23.49 -94.56,34.07 -158.22,31.62 -80.04,-3.09 -142.75,-25.6 -188.11,-67.5 -45.36,-41.77 -66.63,-98.95 -63.84,-171.28 2.88,-74.75 28.75,-131.99 77.77,-171.4 49.04,-39.55 111.36,-57.8 187.01,-54.88 73.19,2.82 132.17,25.32 176.98,67.63 44.82,42.32 65.88,100.21 63.05,173.69 -0.17,4.44 -0.6,11.16 -1.3,20.02l-408.9 -15.77c1.64,48.97 17.12,87.14 46.8,114.25 29.5,27.09 67.28,41.61 112.93,43.37 34.03,1.32 63.41,-4.87 87.96,-18.55 24.72,-13.68 44.67,-36.28 60.01,-67.82zm-300.02 -132.91l305.74 11.79c-2.59,-37.67 -13.33,-66.2 -31.82,-85.71 -28.32,-30.2 -66.21,-46.29 -113.28,-48.11 -42.67,-1.65 -78.92,8.57 -108.91,30.65 -29.81,22.09 -47.05,52.55 -51.73,91.38zm441.78 -163.67l444.34 17.14 -2.41 62.73 -175.61 -6.78 -14.8 383.24 -93.1 -3.6 14.78 -383.23 -175.61 -6.78 2.41 -62.72zm865.3 303.56l90.93 11.51c-10.72,50.74 -36.65,90.1 -78.13,118.37 -41.51,28.27 -92.32,41.94 -152.13,41.16 -75.01,-0.98 -135.08,-21.69 -180.09,-62.12 -45.18,-40.44 -67.18,-97.77 -66.21,-172.01 0.63,-48.14 11.04,-90 31.1,-125.86 20.06,-35.71 50.23,-62.41 90.71,-79.81 40.27,-17.52 83.98,-25.98 131.26,-25.36 59.47,0.77 108.19,13.59 145.62,38.59 37.61,25 61.51,60.14 71.51,105.27l-90.14 10.01c-8.25,-30.06 -23.13,-52.76 -44.99,-68.24 -21.68,-15.33 -48.06,-23.27 -79.1,-23.68 -46.93,-0.61 -85.22,12.51 -115.06,39.35 -29.64,26.99 -44.84,69.79 -45.61,128.83 -0.78,59.9 12.75,103.51 40.64,130.96 28.06,27.46 64.75,41.56 110.11,42.15 36.69,0.48 67.34,-8.15 91.92,-26.03 24.76,-17.74 40.65,-45.49 47.66,-83.09zm595.79 -281.68l5.54 446.25 -93.17 1.16 -2.14 -173.69 -53.65 0.67c-32.65,0.4 -56.95,4.14 -72.92,11.36 -15.97,7.22 -39.17,29.44 -69.58,66.94l-80.67 98.18 -115.39 1.43 99.09 -121.05c30.24,-37.07 60.69,-58.08 91.16,-63.19 -53.19,-5.22 -92.91,-20.35 -118.99,-45.25 -26.06,-24.91 -39.3,-53.84 -39.71,-86.66 -0.48,-38.83 15.89,-70.43 49.28,-94.91 33.41,-24.64 82.13,-37.29 146.01,-38.08l255.14 -3.16zm-92.38 63.92l-132.34 1.64c-55.41,0.69 -91.13,8.15 -107.01,22.4 -15.89,14.24 -23.62,30.81 -23.39,49.59 0.34,26.66 12.39,46.14 36.19,58.32 23.63,12.18 65.51,17.96 125.51,17.21l102.87 -1.27 -1.83 -147.89zm514.74 -64.79l93.11 -3.68 13.47 340.11 245.18 -350.36 99.98 -3.96 17.67 445.95 -93.11 3.68 -13.38 -337.96 -244.93 348.19 -100.32 3.98 -17.67 -445.95zm946.6 -36.16l382.46 -24.97 25.04 383.56 59.16 -3.87 12.28 187.92 -76.07 4.97 -8.24 -126.14 -432.11 28.22 8.24 126.14 -76.07 4.97 -12.27 -187.92 48.61 -3.17c60.77,-76.51 83.77,-206.41 68.97,-389.71zm81.21 57.6c2.57,145.03 -17.91,253.81 -61.44,326.31l294.76 -19.25 -20.97 -320.93 -212.35 13.87zm442.05 131.85c-5.37,-82.23 18.83,-145 72.76,-188.3 44.86,-35.97 101.36,-56.17 169.16,-60.6 75.19,-4.91 138.13,11.08 188.63,48 50.32,36.79 77.89,90.57 82.5,161.08 3.73,57.2 -3.91,102.8 -22.89,136.93 -18.99,34.13 -48.14,61.6 -87.46,82.4 -39.14,20.8 -82.75,32.7 -130.46,35.81 -76.78,5.02 -140.05,-10.81 -190.03,-47.62 -49.97,-36.81 -77.32,-92.76 -82.21,-167.7zm95.09 -6.06c3.72,56.92 21.82,98.53 54.31,124.7 32.65,26.31 72.14,37.95 118.8,34.9 46.14,-3.01 83.59,-19.67 112.56,-50.15 28.78,-30.46 41.26,-74.8 37.46,-133 -3.59,-54.91 -21.8,-95.52 -54.45,-121.68 -32.66,-26.31 -71.99,-37.96 -117.77,-34.97 -46.66,3.05 -84.29,19.58 -113.27,49.77 -28.8,30.17 -41.35,73.65 -37.64,130.43zm883.6 -14.45l91.63 1.83c-5.31,51.58 -26.93,93.47 -65.2,125.97 -38.27,32.49 -87.37,51.46 -146.92,57 -74.69,6.95 -136.61,-7.29 -185.64,-42.74 -49.2,-35.44 -77.14,-90.12 -84.03,-164.04 -4.45,-47.95 1.48,-90.67 17.63,-128.45 16.18,-37.63 43.36,-67.37 81.76,-88.94 38.2,-21.69 80.77,-34.72 127.86,-39.1 59.21,-5.51 109,2.08 148.88,22.99 40.04,20.88 67.52,53.3 82.24,97.12l-88.59 19.48c-11.38,-29.02 -28.56,-50.02 -51.95,-63.1 -23.18,-12.96 -50.23,-18.07 -81.16,-15.19 -46.72,4.35 -83.42,21.44 -110.24,51.29 -26.64,29.97 -37.22,74.14 -31.75,132.92 5.56,59.66 23.63,101.59 54.25,125.94 30.81,24.34 68.78,34.48 113.94,30.28 36.56,-3.41 66.11,-15.23 88.66,-35.61 22.76,-20.25 35.62,-49.52 38.63,-87.65zm83.72 -288.47l441.52 -52.81 7.46 62.33 -174.5 20.87 45.54 380.8 -92.51 11.07 -45.56 -380.8 -174.5 20.87 -7.45 -62.33zm610.73 549.2l-18.8 -68.19c20.84,1.99 38.64,2.17 53.71,0.36 20.67,-2.47 36.8,-7.29 48.4,-14.3 11.78,-7.04 21,-16.08 27.69,-26.99 4.88,-8.23 12.11,-28 21.49,-59.44 1.27,-4.33 3.17,-10.77 6.05,-19.34l-260.27 -419.78 98.82 -11.82 144.5 242.23c18.75,30.53 35.97,63.1 52,97.56 6.65,-35 15.28,-69.81 26.09,-104.3l85.43 -272.34 92.33 -11.04 -152.3 475.48c-16.43,51.19 -29.8,86.56 -40.05,106.41 -13.53,26.59 -30.29,46.92 -50.11,60.99 -19.99,14.08 -44.72,22.81 -74.14,26.33 -17.88,2.14 -38.22,1.54 -60.84,-1.82zm443.8 -678.15l429.43 -63.49 65.27 441.49 -92.17 13.63 -56.09 -379.4 -245.09 36.24 56.1 379.39 -92.18 13.63 -65.27 -441.49zm977.01 154.46l96.66 -6.64c-6.84,47.36 -28.3,87.11 -64.24,118.94 -35.94,31.83 -85.17,53.35 -147.9,64.46 -78.88,13.96 -144.94,5.27 -198.14,-26.05 -53.19,-31.2 -86.11,-82.57 -98.73,-153.84 -13.04,-73.66 0.1,-135.08 39.63,-184.01 39.54,-49.05 96.57,-80.1 171.12,-93.3 72.11,-12.77 134.53,-3.29 187.29,28.55 52.77,31.85 85.65,83.95 98.46,156.36 0.78,4.37 1.79,11.04 2.98,19.84l-402.93 71.33c11.98,47.51 35.21,81.53 69.97,101.72 34.57,20.22 74.56,26.4 119.55,18.43 33.54,-5.93 60.94,-18.21 82.02,-36.79 21.26,-18.61 35.96,-44.93 44.26,-79zm-321.39 -66.24l301.3 -53.34c-10.54,-36.27 -27.09,-61.86 -49.3,-77 -34.08,-23.51 -74.52,-31.2 -120.9,-22.99 -42.04,7.44 -75.3,25.12 -99.92,53.06 -24.46,27.91 -34.84,61.33 -31.18,100.27zm479.53 -268.28l91.75 -16.24 32.38 182.9 254.36 -45.03 -32.37 -182.9 91.76 -16.24 77.79 439.46 -91.76 16.24 -34.47 -194.75 -254.37 45.03 34.47 194.75 -91.75 16.24 -77.79 -439.46zm850.03 -164.37l209.97 -43.45c51.47,-10.66 90.57,-15.09 117.26,-13.29 26.51,1.82 50.74,10.12 72.58,25.07 22.04,15.05 35.63,35.51 41.04,61.61 4.33,20.92 2.74,40.27 -4.61,57.89 -7.48,17.79 -20.68,34.13 -39.95,48.96 26.64,1.65 50.2,10.09 70.86,25.44 20.45,15.23 33.36,35.83 38.67,61.5 5.28,42.09 -6.67,76.62 -35.55,103.37 -28.86,26.9 -74.83,46.81 -137.72,59.83l-242.1 50.1 -90.45 -437.03zm129.42 165.53l96.75 -20.03c38.54,-7.97 64.81,-15.16 78.48,-21.36 13.81,-6.38 25.41,-15.65 34.73,-28.11 9.35,-12.33 12.55,-25.58 9.64,-39.62 -4.79,-23.15 -18.13,-37.08 -39.89,-42.09 -21.93,-4.97 -57.07,-2.38 -105.46,7.63l-99.7 20.63 25.45 122.95zm39.73 191.99l119.75 -24.78c51.48,-10.66 85.89,-22.9 103.07,-36.56 17.15,-13.79 23.71,-32.57 19.78,-56.78 -2.88,-13.89 -11.1,-25.8 -24.62,-35.44 -13.71,-9.6 -29.8,-14.18 -48.23,-13.59 -18.47,0.46 -47.46,4.85 -86.86,13l-110.08 22.78 27.19 131.37zm770.78 -279.85l90.99 -10.99c1.95,51.81 -13.6,96.31 -46.94,133.84 -33.35,37.53 -79.31,63.17 -137.5,76.99 -72.99,17.33 -136.3,11.89 -189.8,-16.35 -53.68,-28.21 -88.99,-78.45 -106.14,-150.68 -11.13,-46.85 -11.22,-89.99 -0.51,-129.66 10.75,-39.52 33.5,-72.77 68.51,-99.5 34.81,-26.81 75.12,-45.67 121.14,-56.59 57.86,-13.74 108.23,-13.19 150.63,1.94 42.56,15.07 74.3,43.33 95.01,84.67l-84.99 31.67c-15.33,-27.14 -35.29,-45.53 -60.26,-55.21 -24.77,-9.59 -52.27,-10.87 -82.49,-3.69 -45.66,10.84 -79.6,32.9 -101.99,66.2 -22.18,33.4 -26.49,78.62 -12.85,136.06 13.84,58.29 37.61,97.28 71.33,117.11 33.91,19.79 72.94,24.52 117.07,14.04 35.71,-8.48 63.32,-24.31 82.81,-47.65 19.69,-23.24 28.34,-54.02 25.98,-92.2zm528.42 -115.12l95.7 -15.13c-2.64,47.77 -20.51,89.26 -53.51,124.14 -32.99,34.87 -80.14,60.65 -141.64,77.24 -77.34,20.86 -143.9,18.03 -199.67,-8.48 -55.73,-26.38 -93.05,-74.65 -111.9,-144.53 -19.49,-72.23 -11.82,-134.57 23.25,-186.79 35.06,-52.34 89.13,-88.31 162.23,-108.02 70.7,-19.08 133.71,-15.14 189.08,11.92 55.38,27.07 92.72,76.08 111.86,147.07 1.16,4.29 2.75,10.84 4.72,19.51l-395.08 106.57c16.13,46.27 42.27,78.11 78.66,95.16 36.24,17.09 76.61,19.72 120.72,7.82 32.89,-8.87 59.1,-23.51 78.46,-43.88 19.54,-20.41 31.85,-47.93 37.12,-82.6zm-325.97 -37.65l295.41 -79.69c-13.69,-35.2 -32.43,-59.24 -55.89,-72.36 -36.02,-20.41 -76.97,-24.51 -122.45,-12.24 -41.24,11.12 -72.81,31.66 -94.87,61.67 -21.89,29.95 -29.29,64.16 -22.2,102.62zm454.02 -309.51l305.64 -82.45 16.35 60.61 -215.69 58.18 99.89 370.28 -89.96 24.27 -116.23 -430.89zm382.04 -106.62l366.53 -112.06 112.37 367.59 56.7 -17.34 55.06 180.1 -72.9 22.28 -36.95 -120.88 -414.13 126.6 36.96 120.89 -72.89 22.29 -55.06 -180.09 46.58 -14.25c41.61,-88.4 34.18,-220.12 -22.27,-395.13zm92.26 37.43c35.77,140.57 40.8,251.15 15.05,331.7l282.49 -86.36 -94.03 -307.56 -203.51 62.22zm882.15 65.62c-24.99,33.82 -51.13,60.47 -78.16,80.15 -27.04,19.69 -57.85,35.36 -92.59,47.22 -57.1,19.5 -104.87,23.24 -143.34,11.09 -38.41,-12.02 -63.63,-35.67 -75.63,-70.8 -7.03,-20.61 -7.64,-41.45 -1.95,-62.48 5.85,-21.08 16.43,-39.84 31.61,-56.53 15.34,-16.75 33.7,-31.81 55.44,-45.14 16.11,-9.59 41.12,-22.06 74.82,-37.51 68.82,-31.08 118.6,-57.32 148.92,-78.27 -3,-9.88 -4.97,-16.17 -5.85,-18.75 -9.91,-29.03 -25.25,-46.66 -46.02,-52.89 -28.06,-8.44 -64.36,-4.98 -108.78,10.19 -41.58,14.2 -70.27,30.67 -85.94,49.19 -15.83,18.58 -23.23,44.44 -22.47,77.79l-89.5 19.66c-2.39,-32.65 2.18,-61.31 13.91,-85.93 11.72,-24.6 32.96,-47.59 63.61,-69.27 30.51,-21.47 68.38,-40.01 113.14,-55.29 44.41,-15.17 82.08,-23.34 112.88,-24.32 30.65,-0.93 54.8,2.64 72.22,11.07 17.42,8.44 32.17,21.59 44.23,39.42 7.02,11.24 16.02,32.69 26.81,64.3l32.42 94.94c22.66,66.32 38.8,107.6 48.55,124.11 9.57,16.57 22.7,31.02 38.94,43.64l-92.17 31.48c-13.98,-12.03 -25.69,-27.72 -35.1,-47.07zm-61.2 -156.3c-28.45,21.53 -73.48,46.91 -135.11,76.13 -34.98,16.64 -59.07,30.17 -72.3,40.59 -13.21,10.42 -22.08,22.09 -26.85,34.92 -4.7,12.97 -5.03,25.65 -0.77,38.12 6.44,18.86 20.71,31.71 42.88,38.22 22.17,6.51 50.41,3.99 84.63,-7.7 33.91,-11.58 62.1,-27.87 84.52,-49.01 22.31,-20.95 36.24,-44.03 41.51,-69 4.01,-19.39 0.57,-44.72 -10.13,-76.05l-8.38 -26.22z"/>
  <rect class="fil0 str1" x="1792.26" y="6855.63" width="3764.02" height="8023.32" rx="200" ry="200"/>
  <rect class="fil0 str1" x="1825.28" y="15638.37" width="3764.02" height="8023.32" rx="200" ry="200"/>
  <rect class="fil0 str1" x="289.93" y="15919" width="1155.63" height="7329.95" rx="200" ry="200"/>
  <ellipse class="fil0 str1" cx="848.74" cy="22679.51" rx="542.33" ry="557.83"/>
  <ellipse class="fil0 str1" cx="848.74" cy="16473.15" rx="542.33" ry="557.83"/>
  <rect class="fil0 str1" x="244.39" y="7206.06" width="1155.63" height="7329.95" rx="200" ry="200"/>
  <ellipse class="fil0 str1" cx="803.19" cy="13966.56" rx="542.33" ry="557.83"/>
  <ellipse class="fil0 str1" cx="803.19" cy="7760.2" rx="542.33" ry="557.83"/>
  <rect class="fil0 str1" x="10202.16" y="9291.74" width="4800" height="4800" rx="197.52" ry="195.99"/>
  <circle class="fil0 str1" cx="12032.61" cy="18602.46" r="2400"/>
  <circle class="fil0 str1" cx="19474.93" cy="18564.49" r="2400"/>
  <circle class="fil0 str1" cx="25929.99" cy="27525.64" r="2400"/>
  <circle class="fil0 str1" cx="19550.87" cy="27449.7" r="2400"/>
  <circle class="fil0 str1" cx="10096.09" cy="27449.7" r="2400"/>
  <circle class="fil0 str1" cx="3603.05" cy="27487.67" r="2400"/>
 </g>
</svg>
