<svg xmlns="http://www.w3.org/2000/svg" width="260" height="360" viewBox="0 0 260 360"><g transform="translate(21.00,28.36) scale(0.004286)"><path d="M5433.46 13320.17c0,-1698.57 1458.93,-2567.63 2723.58,-3296.1 392.69,-226.17 713.9,-270.81 750.67,-699.5l33.37 -388.91 -27.84 -2509.25 -13.9 -1795.59 -167.03 -125.26 13.9 -2756.01 167.03 -97.44 3791.48 -13.91 161.58 125.26 -0.37 2730.53 -166.66 136.83 -76.18 4253.27 -7.33 409.68c-5.77,324.02 254.06,397.34 474.57,555.56 742.21,532.59 1232.11,539.57 2049.44,1394.91 725.68,759.39 1064.57,1391.22 1070.13,2407.69l80.56 14741.11 -576.26 464.21 -192.08 208.1 -9316.13 80.03 -336.16 -224.1 -528.23 -368.16 91.86 -15232.95zm1065.57 2796.87c859.07,-257.42 810.21,-709.84 793.11,-1294.9l7016.13 28.96c-86.02,468.56 123.51,1251.04 823.63,1220.2l-30.49 10066.59c-780.23,177.1 -855.83,587.72 -869.41,1220.19l-6848.31 -45.77c-8.62,-531.05 -532.75,-1209.51 -823.64,-1159.17l-61.02 -10036.1z" fill="#371931" fill-rule="evenodd"/></g><g transform="translate(151.00,208.36) scale(0.004286)"><path d="M5433.46 13320.17c0,-1698.57 1458.93,-2567.63 2723.58,-3296.1 392.69,-226.17 713.9,-270.81 750.67,-699.5l33.37 -388.91 -27.84 -2509.25 -13.9 -1795.59 -167.03 -125.26 13.9 -2756.01 167.03 -97.44 3791.48 -13.91 161.58 125.26 -0.37 2730.53 -166.66 136.83 -76.18 4253.27 -7.33 409.68c-5.77,324.02 254.06,397.34 474.57,555.56 742.21,532.59 1232.11,539.57 2049.44,1394.91 725.68,759.39 1064.57,1391.22 1070.13,2407.69l80.56 14741.11 -576.26 464.21 -192.08 208.1 -9316.13 80.03 -336.16 -224.1 -528.23 -368.16 91.86 -15232.95zm1065.57 2796.87c859.07,-257.42 810.21,-709.84 793.11,-1294.9l7016.13 28.96c-86.02,468.56 123.51,1251.04 823.63,1220.2l-30.49 10066.59c-780.23,177.1 -855.83,587.72 -869.41,1220.19l-6848.31 -45.77c-8.62,-531.05 -532.75,-1209.51 -823.64,-1159.17l-61.02 -10036.1z" fill="#371931" fill-rule="evenodd"/></g></svg>