<?xml version="1.0"?>


<svg version="1.1" id="Слой_1" xmlns:x="&amp;ns_extend;" xmlns:i="&amp;ns_ai;" xmlns:graph="&amp;ns_graphs;" xmlns="http://www.w3.org/2000/svg" xmlns:xlink="http://www.w3.org/1999/xlink" x="0px" y="0px" viewBox="144.7 359.3 560.4 131.3" style="enable-background:new 0 0 850.39 850.39;" xml:space="preserve">

<switch>
&#x9;
&#x9;<g>
&#x9;&#x9;
&#x9;&#x9;<g>
&#x9;&#x9;&#x9;<path fill="#C6BFB5" d="M314.57,440.59h-18.62v-2.56c0.94,0.01,1.89-0.09,2.81-0.29c0.6-0.13,1.15-0.41,1.61-0.82&#xA;&#x9;&#x9;&#x9;&#x9;c0.38-0.37,0.64-0.85,0.72-1.38c0.12-0.66,0.17-1.32,0.17-1.99v-19.95l-17.56,20.45c0.02,0.6,0.12,1.2,0.28,1.78&#xA;&#x9;&#x9;&#x9;&#x9;c0.13,0.49,0.42,0.92,0.81,1.23c0.48,0.36,1.03,0.61,1.62,0.72c0.91,0.18,1.83,0.26,2.75,0.24v2.57h-18.74v-2.57&#xA;&#x9;&#x9;&#x9;&#x9;c0.93,0,1.85-0.1,2.75-0.29c0.6-0.13,1.15-0.4,1.61-0.8c0.39-0.37,0.65-0.84,0.75-1.37c0.13-0.66,0.19-1.34,0.18-2.01v-23.84&#xA;&#x9;&#x9;&#x9;&#x9;c-0.01-0.66-0.07-1.32-0.18-1.97c-0.08-0.52-0.33-1-0.7-1.37c-0.45-0.41-0.99-0.69-1.59-0.82c-0.94-0.21-1.9-0.31-2.86-0.32&#xA;&#x9;&#x9;&#x9;&#x9;v-2.57h18.76v2.57c-2.31,0-3.8,0.35-4.47,1.04c-0.74,0.99-1.09,2.21-0.98,3.44v19.61l17.53-20.45c-0.02-0.54-0.11-1.07-0.27-1.58&#xA;&#x9;&#x9;&#x9;&#x9;c-0.14-0.44-0.4-0.82-0.76-1.1c-0.47-0.34-1.01-0.57-1.58-0.67c-0.88-0.18-1.77-0.27-2.67-0.29v-2.57h18.62v2.57&#xA;&#x9;&#x9;&#x9;&#x9;c-0.96,0.01-1.92,0.12-2.86,0.32c-0.59,0.12-1.14,0.41-1.59,0.82c-0.37,0.37-0.61,0.85-0.69,1.37c-0.1,0.65-0.16,1.31-0.17,1.97&#xA;&#x9;&#x9;&#x9;&#x9;v23.84c-0.01,0.61,0.03,1.23,0.12,1.84c0.08,0.53,0.31,1.02,0.66,1.42c0.43,0.45,0.98,0.77,1.59,0.92&#xA;&#x9;&#x9;&#x9;&#x9;c0.96,0.23,1.95,0.34,2.94,0.31L314.57,440.59z"></path>
&#x9;&#x9;&#x9;<path fill="#C6BFB5" d="M380.51,440.59h-10.09c-0.94-1.18-1.79-2.36-2.57-3.54c-0.79-1.19-1.53-2.37-2.25-3.57l-2.13-3.56&#xA;&#x9;&#x9;&#x9;&#x9;c-0.7-1.18-1.42-2.33-2.18-3.49c-0.36-0.56-0.78-1.09-1.25-1.57c-0.4-0.39-0.89-0.67-1.42-0.84c-0.7-0.21-1.43-0.32-2.17-0.33&#xA;&#x9;&#x9;&#x9;&#x9;c-0.92,0-2.04-0.06-3.49-0.06v9.9c-0.02,0.7,0.06,1.4,0.24,2.08c0.14,0.54,0.43,1.02,0.84,1.39c0.49,0.4,1.08,0.66,1.7,0.77&#xA;&#x9;&#x9;&#x9;&#x9;c0.91,0.18,1.83,0.26,2.75,0.24v2.57h-18.98v-2.56c0.92,0.02,1.85-0.06,2.75-0.24c0.62-0.11,1.2-0.38,1.69-0.77&#xA;&#x9;&#x9;&#x9;&#x9;c0.41-0.37,0.71-0.85,0.85-1.39c0.17-0.68,0.24-1.38,0.23-2.08v-9.9c-1.45,0-2.61,0-3.49,0.06c-0.73,0.01-1.46,0.13-2.17,0.33&#xA;&#x9;&#x9;&#x9;&#x9;c-0.53,0.17-1.02,0.45-1.42,0.84c-0.46,0.48-0.88,1.01-1.24,1.57c-0.77,1.16-1.5,2.32-2.19,3.49l-2.12,3.56&#xA;&#x9;&#x9;&#x9;&#x9;c-0.73,1.2-1.47,2.38-2.25,3.57c-0.78,1.19-1.64,2.36-2.57,3.54h-10.14v-2.57c0.39-0.01,0.77-0.06,1.15-0.16&#xA;&#x9;&#x9;&#x9;&#x9;c0.42-0.11,0.82-0.26,1.21-0.45c0.42-0.2,0.8-0.45,1.16-0.75c0.38-0.31,0.72-0.66,1.01-1.05c1.32-1.76,2.57-3.53,3.74-5.31&#xA;&#x9;&#x9;&#x9;&#x9;c1.17-1.79,2.36-3.57,3.57-5.31c0.59-0.9,1.29-1.72,2.08-2.45c0.65-0.59,1.4-1.08,2.2-1.45c0.79-0.34,1.61-0.58,2.46-0.72&#xA;&#x9;&#x9;&#x9;&#x9;c0.95-0.13,1.9-0.2,2.86-0.19h0.57h0.61c-1.03-0.73-2-1.53-2.92-2.4c-0.92-0.86-1.74-1.69-2.51-2.51s-1.46-1.56-2.06-2.25&#xA;&#x9;&#x9;&#x9;&#x9;c-0.61-0.69-1.11-1.26-1.52-1.7c-0.45-0.47-0.93-0.91-1.44-1.31c-0.43-0.33-0.88-0.64-1.35-0.92c-0.4-0.23-0.81-0.45-1.23-0.63&#xA;&#x9;&#x9;&#x9;&#x9;l-1.09-0.44c-0.67-0.27-1.38-0.46-2.09-0.58c-0.84-0.15-1.66-0.37-2.46-0.65c-0.62-0.18-1.16-0.58-1.52-1.12&#xA;&#x9;&#x9;&#x9;&#x9;c-0.25-0.46-0.38-0.98-0.38-1.51c-0.02-0.33,0.04-0.66,0.19-0.96s0.37-0.55,0.65-0.73c0.6-0.36,1.28-0.55,1.98-0.53&#xA;&#x9;&#x9;&#x9;&#x9;c0.66,0,1.32,0.05,1.97,0.16c0.6,0.1,1.18,0.27,1.74,0.51c0.59,0.25,1.15,0.56,1.68,0.92c0.61,0.43,1.2,0.89,1.75,1.39&#xA;&#x9;&#x9;&#x9;&#x9;c0.73,0.65,1.34,1.24,1.83,1.77c0.5,0.53,0.96,1.08,1.42,1.65l1.51,1.88c0.55,0.69,1.27,1.52,2.14,2.49&#xA;&#x9;&#x9;&#x9;&#x9;c1.36,1.51,2.51,2.76,3.48,3.68c0.77,0.76,1.58,1.46,2.44,2.11c0.51,0.39,1.06,0.71,1.65,0.97c0.35,0.14,0.73,0.22,1.11,0.24&#xA;&#x9;&#x9;&#x9;&#x9;v-10.02c0.13-1.24-0.23-2.48-1-3.47c-0.67-0.67-2.16-1.01-4.5-1.01v-2.57h18.98v2.57c-2.32,0-3.83,0.34-4.5,1.01&#xA;&#x9;&#x9;&#x9;&#x9;c-0.77,0.98-1.13,2.22-1,3.47v10.02c0.38-0.02,0.76-0.1,1.11-0.24c0.59-0.25,1.14-0.58,1.65-0.97c0.86-0.65,1.67-1.36,2.43-2.11&#xA;&#x9;&#x9;&#x9;&#x9;c0.92-0.92,2.11-2.14,3.49-3.68c0.85-0.97,1.57-1.84,2.12-2.49c0.55-0.65,1.07-1.31,1.52-1.88c0.45-0.57,0.92-1.12,1.42-1.65&#xA;&#x9;&#x9;&#x9;&#x9;c0.51-0.53,1.11-1.12,1.83-1.77c0.56-0.49,1.14-0.96,1.75-1.39c0.53-0.36,1.09-0.67,1.68-0.92c0.56-0.24,1.14-0.41,1.74-0.51&#xA;&#x9;&#x9;&#x9;&#x9;c0.65-0.11,1.31-0.16,1.97-0.16c0.36,0,0.72,0.04,1.07,0.13c0.33,0.08,0.64,0.21,0.92,0.4c0.26,0.18,0.47,0.41,0.61,0.69&#xA;&#x9;&#x9;&#x9;&#x9;c0.16,0.31,0.23,0.65,0.22,0.99c0,0.53-0.13,1.04-0.38,1.51c-0.36,0.55-0.9,0.95-1.52,1.12c-0.8,0.29-1.62,0.51-2.46,0.65&#xA;&#x9;&#x9;&#x9;&#x9;c-0.72,0.11-1.42,0.31-2.09,0.58l-1.09,0.44c-0.42,0.19-0.83,0.4-1.22,0.63c-0.47,0.28-0.92,0.59-1.36,0.92&#xA;&#x9;&#x9;&#x9;&#x9;c-0.51,0.4-0.99,0.84-1.44,1.31c-0.42,0.44-0.92,1.01-1.53,1.7c-0.62,0.69-1.29,1.44-2.06,2.25c-0.77,0.81-1.61,1.65-2.52,2.51&#xA;&#x9;&#x9;&#x9;&#x9;c-0.92,0.86-1.89,1.66-2.91,2.4h0.6h0.57c0.96-0.01,1.92,0.06,2.86,0.19c0.85,0.13,1.67,0.37,2.46,0.72&#xA;&#x9;&#x9;&#x9;&#x9;c0.8,0.37,1.54,0.86,2.19,1.45c0.79,0.74,1.49,1.56,2.09,2.45c1.22,1.75,2.42,3.52,3.58,5.31c1.16,1.8,2.41,3.57,3.73,5.31&#xA;&#x9;&#x9;&#x9;&#x9;c0.29,0.39,0.63,0.74,1.01,1.05c0.35,0.3,0.74,0.55,1.16,0.75c0.39,0.19,0.79,0.34,1.2,0.45c0.38,0.1,0.77,0.15,1.16,0.16&#xA;&#x9;&#x9;&#x9;&#x9;L380.51,440.59z"></path>
&#x9;&#x9;&#x9;<path fill="#C6BFB5" d="M421.12,440.59h-17.84v-2.56c1.11,0.04,2.21-0.07,3.29-0.32c0.32-0.09,0.61-0.29,0.8-0.57&#xA;&#x9;&#x9;&#x9;&#x9;c0.19-0.28,0.27-0.62,0.24-0.95c0-0.59-0.12-1.17-0.34-1.71l-1.78-4.48H393.2l-0.92,2.46c-0.42,0.95-0.68,1.96-0.78,3&#xA;&#x9;&#x9;&#x9;&#x9;c-0.06,0.45,0.04,0.91,0.28,1.29c0.24,0.39,0.6,0.68,1.03,0.83c0.98,0.32,2,0.47,3.03,0.45v2.57H382.8v-2.57&#xA;&#x9;&#x9;&#x9;&#x9;c0.92,0.02,1.83-0.18,2.65-0.59c0.87-0.55,1.59-1.31,2.07-2.22c0.84-1.47,1.56-3.01,2.14-4.6l10.92-28.65h2.65l11.53,29.55&#xA;&#x9;&#x9;&#x9;&#x9;c0.84,2.09,1.45,3.49,1.84,4.24c0.36,0.71,0.92,1.3,1.61,1.7c0.9,0.45,1.9,0.66,2.91,0.61V440.59z M404.48,427.24l-5.22-13.23&#xA;&#x9;&#x9;&#x9;&#x9;l-4.98,13.23H404.48z"></path>
&#x9;&#x9;&#x9;<path fill="#C6BFB5" d="M476.56,440.59h-18.98v-2.56c1.22,0.06,2.44-0.1,3.6-0.5c0.34-0.12,0.64-0.31,0.9-0.55&#xA;&#x9;&#x9;&#x9;&#x9;c0.26-0.25,0.46-0.54,0.6-0.87c0.26-0.83,0.38-1.69,0.35-2.56v-23.78l-14.29,30.83h-1.71l-14.49-30.83v22.58&#xA;&#x9;&#x9;&#x9;&#x9;c-0.01,0.92,0.03,1.84,0.13,2.76c0.06,0.59,0.29,1.15,0.64,1.63c0.43,0.49,1,0.84,1.63,0.99c1.01,0.24,2.06,0.35,3.1,0.32v2.57&#xA;&#x9;&#x9;&#x9;&#x9;h-14.02v-2.59c1.05,0.04,2.1-0.08,3.11-0.34c0.63-0.15,1.19-0.5,1.61-1c0.35-0.47,0.56-1.03,0.61-1.61&#xA;&#x9;&#x9;&#x9;&#x9;c0.09-0.92,0.12-1.84,0.11-2.76v-21.48c0.04-1.16-0.05-2.32-0.25-3.47c-0.09-0.36-0.26-0.69-0.5-0.97s-0.54-0.5-0.88-0.64&#xA;&#x9;&#x9;&#x9;&#x9;c-1.22-0.45-2.51-0.63-3.81-0.55v-2.57h13.85l12.57,26.77l12.59-26.77h13.54v2.57c-2.33,0-3.84,0.34-4.51,1.02&#xA;&#x9;&#x9;&#x9;&#x9;c-0.77,0.98-1.14,2.22-1.02,3.46v23.84c-0.02,0.84,0.09,1.68,0.34,2.49c0.14,0.34,0.35,0.65,0.61,0.9&#xA;&#x9;&#x9;&#x9;&#x9;c0.27,0.25,0.59,0.44,0.94,0.56c1.18,0.41,2.42,0.59,3.67,0.52L476.56,440.59z"></path>
&#x9;&#x9;&#x9;<path fill="#C6BFB5" d="M576.17,440.58h-10.14c-0.92-1.17-1.79-2.35-2.57-3.54c-0.78-1.19-1.53-2.37-2.25-3.57s-1.42-2.37-2.12-3.55&#xA;&#x9;&#x9;&#x9;&#x9;c-0.7-1.18-1.43-2.34-2.19-3.49c-0.36-0.56-0.78-1.09-1.24-1.57c-0.41-0.38-0.9-0.67-1.43-0.84c-0.7-0.21-1.42-0.32-2.16-0.34&#xA;&#x9;&#x9;&#x9;&#x9;c-0.88-0.04-2.05-0.06-3.5-0.06v9.91c-0.01,0.7,0.07,1.4,0.24,2.08c0.14,0.54,0.44,1.02,0.85,1.39c0.49,0.39,1.07,0.65,1.69,0.76&#xA;&#x9;&#x9;&#x9;&#x9;c0.91,0.18,1.83,0.26,2.75,0.24v2.57h-18.93v-2.55c0.98,0.01,1.95-0.09,2.91-0.29c0.6-0.12,1.16-0.39,1.62-0.79&#xA;&#x9;&#x9;&#x9;&#x9;c0.37-0.37,0.62-0.85,0.72-1.37c0.12-0.66,0.18-1.34,0.19-2.01v-23.84c0.01-0.67-0.04-1.35-0.16-2.01&#xA;&#x9;&#x9;&#x9;&#x9;c-0.08-0.52-0.33-1-0.71-1.36c-0.47-0.39-1.03-0.66-1.63-0.78c-0.97-0.2-1.96-0.31-2.95-0.32v-2.57h18.93v2.57&#xA;&#x9;&#x9;&#x9;&#x9;c-2.33,0-3.83,0.34-4.5,1.01c-0.77,0.98-1.14,2.22-1.01,3.47v10.01c0.38-0.01,0.76-0.09,1.12-0.24c0.59-0.25,1.14-0.57,1.64-0.97&#xA;&#x9;&#x9;&#x9;&#x9;c0.86-0.64,1.67-1.35,2.43-2.11c0.92-0.92,2.11-2.14,3.49-3.68c0.85-0.97,1.56-1.84,2.12-2.49l1.52-1.89&#xA;&#x9;&#x9;&#x9;&#x9;c0.45-0.56,0.92-1.11,1.42-1.65c0.5-0.53,1.1-1.12,1.84-1.77c0.56-0.5,1.15-0.96,1.76-1.39c0.52-0.36,1.08-0.67,1.67-0.92&#xA;&#x9;&#x9;&#x9;&#x9;c0.56-0.24,1.15-0.41,1.75-0.51c0.65-0.11,1.3-0.16,1.96-0.16c0.36,0,0.72,0.04,1.07,0.13c0.33,0.07,0.64,0.21,0.92,0.4&#xA;&#x9;&#x9;&#x9;&#x9;c0.26,0.18,0.47,0.41,0.61,0.68c0.16,0.31,0.24,0.65,0.23,0.99c0,0.53-0.13,1.05-0.39,1.52c-0.36,0.53-0.91,0.92-1.53,1.08&#xA;&#x9;&#x9;&#x9;&#x9;c-0.8,0.29-1.62,0.51-2.46,0.66c-0.72,0.12-1.42,0.31-2.09,0.57l-1.09,0.45c-0.42,0.18-0.84,0.39-1.23,0.63&#xA;&#x9;&#x9;&#x9;&#x9;c-0.47,0.28-0.93,0.58-1.36,0.92c-0.51,0.4-0.99,0.83-1.43,1.3c-0.43,0.45-0.95,1.02-1.54,1.71c-0.6,0.69-1.28,1.44-2.05,2.25&#xA;&#x9;&#x9;&#x9;&#x9;c-0.77,0.81-1.61,1.65-2.53,2.5c-0.91,0.86-1.88,1.67-2.9,2.41c0.2,0,0.4,0,0.6,0h0.58c0.96-0.01,1.91,0.06,2.86,0.19&#xA;&#x9;&#x9;&#x9;&#x9;c0.85,0.12,1.67,0.36,2.45,0.72c0.81,0.36,1.55,0.85,2.19,1.45c0.78,0.74,1.48,1.56,2.09,2.45c1.22,1.75,2.42,3.53,3.58,5.32&#xA;&#x9;&#x9;&#x9;&#x9;c1.16,1.8,2.41,3.57,3.74,5.31c0.29,0.38,0.63,0.74,1,1.05c0.36,0.3,0.75,0.55,1.17,0.75c0.38,0.19,0.78,0.34,1.19,0.45&#xA;&#x9;&#x9;&#x9;&#x9;c0.38,0.1,0.77,0.15,1.17,0.15L576.17,440.58z"></path>
&#x9;&#x9;&#x9;<path fill="#C6BFB5" d="M617.92,421.61c0.02,3.39-0.83,6.73-2.46,9.7c-1.69,3.06-4.21,5.57-7.28,7.24&#xA;&#x9;&#x9;&#x9;&#x9;c-3.49,1.89-7.41,2.85-11.38,2.76c-3.23,0.07-6.44-0.52-9.43-1.73c-2.53-1.02-4.81-2.59-6.66-4.6c-1.67-1.86-2.97-4.03-3.83-6.38&#xA;&#x9;&#x9;&#x9;&#x9;c-0.81-2.23-1.23-4.59-1.24-6.97c-0.01-3.34,0.81-6.63,2.38-9.57c1.64-3.06,4.12-5.57,7.15-7.25c3.49-1.92,7.43-2.87,11.41-2.76&#xA;&#x9;&#x9;&#x9;&#x9;c3.54-0.1,7.05,0.58,10.3,1.99c2.57,1.13,4.84,2.84,6.61,5.01c1.52,1.88,2.67,4.03,3.4,6.33&#xA;&#x9;&#x9;&#x9;&#x9;C617.54,417.4,617.89,419.5,617.92,421.61z M608.87,421.5c0.01-2.03-0.17-4.05-0.54-6.04c-0.33-1.82-0.98-3.57-1.92-5.17&#xA;&#x9;&#x9;&#x9;&#x9;c-0.9-1.54-2.19-2.81-3.74-3.68c-1.8-0.96-3.82-1.43-5.86-1.36c-3.2,0-5.7,0.8-7.49,2.39c-1.79,1.58-3.07,3.67-3.67,5.98&#xA;&#x9;&#x9;&#x9;&#x9;c-0.65,2.57-0.96,5.21-0.92,7.85c0.01,1.64,0.11,3.27,0.3,4.9c0.24,1.8,0.74,3.56,1.49,5.21c0.81,1.82,2.1,3.37,3.73,4.5&#xA;&#x9;&#x9;&#x9;&#x9;c1.97,1.3,4.3,1.94,6.65,1.84c2.34,0.11,4.64-0.55,6.57-1.88c1.61-1.17,2.88-2.76,3.67-4.6c0.73-1.66,1.22-3.42,1.45-5.22&#xA;&#x9;&#x9;&#x9;&#x9;c0.19-1.58,0.28-3.16,0.28-4.75V421.5z"></path>
&#x9;&#x9;&#x9;<path fill="#C6BFB5" d="M658.51,413.42h-2.65c-0.08-1.84-0.61-3.63-1.55-5.2c-0.59-0.96-1.49-1.69-2.55-2.08&#xA;&#x9;&#x9;&#x9;&#x9;c-1.03-0.27-2.09-0.4-3.16-0.39h-4.81v27.78c-0.03,0.86,0.09,1.73,0.34,2.56c0.15,0.33,0.36,0.63,0.63,0.88&#xA;&#x9;&#x9;&#x9;&#x9;c0.27,0.24,0.59,0.43,0.93,0.54c1.16,0.38,2.38,0.55,3.61,0.5v2.57h-18.98v-2.55c2.32,0,3.83-0.33,4.5-1&#xA;&#x9;&#x9;&#x9;&#x9;c0.77-0.98,1.13-2.22,1-3.47v-27.78h-4.02c-1.32-0.03-2.64,0.1-3.93,0.38c-1.14,0.32-2.13,1.06-2.75,2.07&#xA;&#x9;&#x9;&#x9;&#x9;c-0.92,1.58-1.38,3.39-1.35,5.22h-2.66v-10.77h37.41V413.42z"></path>
&#x9;&#x9;&#x9;<path fill="#C6BFB5" d="M694.75,440.58h-17.84v-2.55c1.11,0.05,2.22-0.06,3.29-0.32c0.33-0.09,0.61-0.29,0.8-0.57&#xA;&#x9;&#x9;&#x9;&#x9;c0.19-0.28,0.27-0.61,0.24-0.95c-0.01-0.59-0.12-1.17-0.34-1.71l-1.79-4.48h-12.28l-0.92,2.46c-0.42,0.95-0.68,1.96-0.78,2.99&#xA;&#x9;&#x9;&#x9;&#x9;c-0.06,0.45,0.04,0.91,0.27,1.29c0.23,0.39,0.59,0.68,1.02,0.84c0.98,0.31,2,0.46,3.03,0.44v2.57h-13.04v-2.57&#xA;&#x9;&#x9;&#x9;&#x9;c0.92,0.03,1.83-0.17,2.65-0.59c0.88-0.54,1.6-1.31,2.08-2.22c0.84-1.47,1.56-3.01,2.14-4.6l10.92-28.65h2.65l11.53,29.54&#xA;&#x9;&#x9;&#x9;&#x9;c0.83,2.1,1.45,3.5,1.83,4.24c0.37,0.71,0.93,1.3,1.62,1.71c0.9,0.45,1.9,0.65,2.9,0.6V440.58z M678.11,427.24l-5.22-13.23&#xA;&#x9;&#x9;&#x9;&#x9;l-4.97,13.23H678.11z"></path>
&#x9;&#x9;&#x9;<path fill="#C6BFB5" d="M518.04,440.62h-17.84v-2.58c1.11,0.04,2.22-0.07,3.29-0.32c0.32-0.09,0.61-0.29,0.8-0.57&#xA;&#x9;&#x9;&#x9;&#x9;c0.19-0.28,0.27-0.62,0.24-0.95c-0.01-0.59-0.12-1.17-0.34-1.71l-1.79-4.48h-12.29l-0.92,2.46c-0.42,0.95-0.68,1.96-0.78,3&#xA;&#x9;&#x9;&#x9;&#x9;c-0.06,0.45,0.04,0.9,0.27,1.29c0.24,0.39,0.6,0.68,1.02,0.83c0.98,0.31,2,0.47,3.03,0.45v2.57h-13.04v-2.57&#xA;&#x9;&#x9;&#x9;&#x9;c0.92,0.03,1.83-0.18,2.65-0.59c0.88-0.54,1.6-1.31,2.08-2.22c0.84-1.47,1.56-3.01,2.14-4.6l10.92-28.65h2.65l11.56,29.52&#xA;&#x9;&#x9;&#x9;&#x9;c0.84,2.09,1.45,3.49,1.84,4.24c0.37,0.71,0.93,1.3,1.62,1.7c0.9,0.45,1.9,0.66,2.9,0.61L518.04,440.62z M501.41,427.27&#xA;&#x9;&#x9;&#x9;&#x9;l-5.22-13.23l-4.97,13.23H501.41z"></path>
&#x9;&#x9;&#x9;<path fill="#C6BFB5" d="M193.91,425.79c-6.61,1.84-11.5-0.38-14.9-4.85c-0.22-0.28-0.49-0.51-0.81-0.67&#xA;&#x9;&#x9;&#x9;&#x9;c-0.32-0.16-0.67-0.24-1.02-0.25c-0.45-0.02-0.9,0.09-1.29,0.32c-0.39,0.23-0.7,0.56-0.91,0.97c-0.2,0.4-0.29,0.86-0.25,1.3&#xA;&#x9;&#x9;&#x9;&#x9;c0.04,0.45,0.22,0.88,0.5,1.23c2.24,3.03,5.36,5.28,8.93,6.45c3.57,1.17,7.42,1.2,11.01,0.08c0.3-0.08,0.59-0.22,0.83-0.41&#xA;&#x9;&#x9;&#x9;&#x9;c0.25-0.19,0.45-0.43,0.61-0.7c0.15-0.27,0.25-0.57,0.29-0.89c0.04-0.31,0.01-0.63-0.08-0.93c-0.08-0.3-0.22-0.59-0.41-0.83&#xA;&#x9;&#x9;&#x9;&#x9;c-0.19-0.25-0.43-0.45-0.7-0.61c-0.27-0.15-0.57-0.25-0.88-0.29C194.52,425.68,194.21,425.7,193.91,425.79z"></path>
&#x9;&#x9;&#x9;<path fill="#C6BFB5" d="M309.53,460.53c-1.94-4.67-6.06-8.37-11.21-8.83c-1.34-0.15-2.69,0.01-3.96,0.47&#xA;&#x9;&#x9;&#x9;&#x9;c-1.26,0.46-2.41,1.21-3.34,2.18c-0.87,0.93-1.49,2.07-1.79,3.32c-0.3,1.24-0.28,2.54,0.06,3.77c0.86,2.82,5.29,1.62,4.42-1.22&#xA;&#x9;&#x9;&#x9;&#x9;c-0.17-0.61-0.14-1.25,0.09-1.84c0.22-0.59,0.63-1.09,1.16-1.43c1.41-1.01,3.39-0.79,4.94-0.23c1.45,0.61,2.73,1.54,3.74,2.74&#xA;&#x9;&#x9;&#x9;&#x9;c1.02,1.19,1.74,2.61,2.1,4.14c0.44,1.54,0.5,3.17,0.17,4.74s-1.04,3.04-2.06,4.27c-2.23,2.74-5.24,4.74-8.63,5.74&#xA;&#x9;&#x9;&#x9;&#x9;c-3.31,0.76-6.71,1.01-10.09,0.74c-3.28-0.18-6.53-0.68-9.72-1.5c-5.85-1.29-11.47-3.46-16.68-6.44&#xA;&#x9;&#x9;&#x9;&#x9;c-7.42-4.29-14.13-9.8-20.82-15.13l-0.26-0.17c-3.8-3.15-7.4-6.52-10.79-10.11c-4.22-4.6-7.73-9.12-10.09-11.68&#xA;&#x9;&#x9;&#x9;&#x9;c-10.32-11.21-21.78-22.16-36.04-21.93c-4.41,0-5.62,0-5.88-3.36c-0.2-4.65,0.83-9.28,2.99-13.4c2.16-4.13,5.36-7.61,9.29-10.1&#xA;&#x9;&#x9;&#x9;&#x9;c11.93-7.92,25.94-4.24,38.53,0.51c6.29,2.37,12.11,4.97,17.14,6.36c1.83,0.37,2.11,1.5,0.71,3.81c-0.48,0.77-0.92,1.55-1.32,2.3&#xA;&#x9;&#x9;&#x9;&#x9;l-19.47,34.71c-0.16,0.27-0.26,0.57-0.3,0.89c-0.04,0.31-0.01,0.63,0.07,0.93c0.09,0.3,0.23,0.59,0.43,0.83&#xA;&#x9;&#x9;&#x9;&#x9;c0.2,0.25,0.44,0.45,0.72,0.6c0.27,0.16,0.57,0.26,0.88,0.29c0.31,0.04,0.63,0.01,0.93-0.07c0.3-0.09,0.58-0.23,0.83-0.43&#xA;&#x9;&#x9;&#x9;&#x9;c0.24-0.2,0.45-0.44,0.6-0.71l19.51-34.79c1-1.86,2.14-3.65,3.39-5.35c0.38-0.5,0.79-0.97,1.22-1.42&#xA;&#x9;&#x9;&#x9;&#x9;c3.27,0.2,6.54-0.01,9.76-0.61L244.3,422.4c-1.39,2.49-2.68,4.99-3.8,7.28c-1.39,2.76-2.7,6.12-2.47,9.4&#xA;&#x9;&#x9;&#x9;&#x9;c0.03,0.88,0.25,1.75,0.64,2.54c0.39,0.79,0.94,1.49,1.62,2.06c1.69,1.16,3.77,1.62,5.79,1.26c2.93-0.32,5.64-2.1,8.33-4.93&#xA;&#x9;&#x9;&#x9;&#x9;c2.69-2.83,2.45-2.52,5.26-7.75c0.18-0.36,0.28-0.75,0.29-1.15c0-0.31-0.06-0.62-0.18-0.91c-0.12-0.29-0.29-0.55-0.51-0.77&#xA;&#x9;&#x9;&#x9;&#x9;c-0.22-0.22-0.48-0.4-0.77-0.51c-0.29-0.12-0.6-0.18-0.91-0.18c-0.43,0.02-0.84,0.15-1.21,0.38c-0.37,0.22-0.67,0.53-0.89,0.9&#xA;&#x9;&#x9;&#x9;&#x9;c-2.68,4.99-2.28,4.36-4.52,6.73c-2.25,2.37-4.14,3.34-5.4,3.48c-1.55,0.17-2.17-0.12-2.39-0.29c-0.22-0.17-0.38-0.41-0.43-1.19&#xA;&#x9;&#x9;&#x9;&#x9;c-0.11-1.55,0.8-4.6,1.99-6.99c1.1-2.23,2.35-4.67,3.67-7.06l18.51-33.1c0,0,0.05-0.1,0.06-0.16&#xA;&#x9;&#x9;&#x9;&#x9;c8.41-2.69,16.29-7.48,23.51-12.59c3.53-2.51,6.94-5.07,9.54-8.59c0.31-0.55,0.4-1.2,0.24-1.81c-0.16-0.61-0.55-1.14-1.1-1.46&#xA;&#x9;&#x9;&#x9;&#x9;c-0.55-0.31-1.2-0.39-1.8-0.23c-0.61,0.16-1.13,0.55-1.46,1.08c-1.94,2.64-4.66,4.6-7.34,6.49c-2.95,2.1-5.93,4.13-9.01,6&#xA;&#x9;&#x9;&#x9;&#x9;c-6.18,3.75-12.84,6.79-19.95,8.06c-1.16,0.2-2.33,0.35-3.51,0.44c0.13-0.46,0.11-0.95-0.05-1.4c-0.15-0.45-0.44-0.85-0.83-1.13&#xA;&#x9;&#x9;&#x9;&#x9;c-0.25-0.19-0.54-0.32-0.85-0.39c-0.31-0.07-0.62-0.09-0.93-0.03c-0.31,0.05-0.61,0.16-0.87,0.33c-0.27,0.17-0.5,0.38-0.68,0.64&#xA;&#x9;&#x9;&#x9;&#x9;c-0.3,0.39-0.68,0.71-1.12,0.93c-0.44,0.22-0.92,0.35-1.41,0.36c-1.81,0.07-3.63-0.17-5.36-0.73&#xA;&#x9;&#x9;&#x9;&#x9;c-4.44-1.21-10.27-3.79-16.73-6.22c-7.27-2.76-15.5-5.31-23.78-5.41c-6.74-0.19-13.39,1.69-19.03,5.4&#xA;&#x9;&#x9;&#x9;&#x9;c-4.81,3.09-8.68,7.43-11.2,12.57c-2.52,5.14-3.58,10.87-3.08,16.57c0.22,2.25,0.17,3.39-2.32,4.67&#xA;&#x9;&#x9;&#x9;&#x9;c-2.81,1.43-5.28,3.46-7.24,5.94c-1.98,2.64-3.42,5.66-4.23,8.87c-0.81,3.21-0.96,6.54-0.46,9.81&#xA;&#x9;&#x9;&#x9;&#x9;c1.75,13.22,13.15,25.99,31.35,24.51c10.88-0.92,21.95-5.52,31.12-16.35c2-2.56,2.99-1.06,4.93,1.06&#xA;&#x9;&#x9;&#x9;&#x9;c4.52,4.83,9.43,9.28,14.68,13.31c0.53,0.41,1.1,0.78,1.7,1.09c5.16,4.24,10.61,8.11,16.3,11.59c6.12,3.53,12.76,6.07,19.68,7.5&#xA;&#x9;&#x9;&#x9;&#x9;c3.91,0.89,7.91,1.34,11.93,1.35c4.05,0,8.09-0.41,11.82-2.11c4.05-1.8,7.41-4.85,9.61-8.71c0.98-1.9,1.52-3.98,1.61-6.12&#xA;&#x9;&#x9;&#x9;&#x9;C310.73,464.62,310.35,462.5,309.53,460.53z M214.64,445c-8.32,9.73-17.93,13.64-27.67,14.43c-15.92,1.29-24.83-9.38-26.29-20.41&#xA;&#x9;&#x9;&#x9;&#x9;c-0.42-2.64-0.31-5.34,0.32-7.94c0.63-2.6,1.77-5.05,3.35-7.2c3.23-4.11,8.44-6.99,16.42-7.12h0.55&#xA;&#x9;&#x9;&#x9;&#x9;c11.51,0.11,21.94,9.56,31.95,20.41C216.22,440.58,217.51,441.64,214.64,445z"></path>
&#x9;&#x9;</g>
&#x9;</g>
</switch>

</svg>