<?xml version="1.0" encoding="UTF-8"?>
<!DOCTYPE svg PUBLIC "-//W3C//DTD SVG 1.1//EN" "http://www.w3.org/Graphics/SVG/1.1/DTD/svg11.dtd">
<!-- Creator: CorelDRAW -->
<svg xmlns="http://www.w3.org/2000/svg" xml:space="preserve" width="205mm" height="133mm" version="1.1" style="shape-rendering:geometricPrecision; text-rendering:geometricPrecision; image-rendering:optimizeQuality; fill-rule:evenodd; clip-rule:evenodd"
viewBox="0 0 20500 13300"
 xmlns:xlink="http://www.w3.org/1999/xlink"
 xmlns:xodm="http://www.corel.com/coreldraw/odm/2003">
 <defs>
  <style type="text/css">
   <![CDATA[
    .fil3 {fill:none}
    .fil1 {fill:#C4BAB6}
    .fil4 {fill:#C4BAB9}
    .fil2 {fill:#C5BCB5}
    .fil0 {fill:#C5BEB4}
   ]]>
  </style>
 </defs>
 <g id="Слой_x0020_1">
  <metadata id="CorelCorpID_0Corel-Layer"/>
  <g id="_1728988401600">
   <path class="fil0" d="M135.27 850.48c-127.06,1254.77 1010.18,2183.76 1991.85,2679.87 1626.34,821.91 1794.37,921.27 1860.76,2851.34 -5.07,1046.82 125.61,3562.9 -136.83,4490.96 -307.9,878.54 -1055.01,1347.1 -1870.39,1664.13 -605.12,235.29 -756.17,137.84 -709.61,387.08 173.51,50.42 1141.7,-86.9 1409.54,-108.9 505.24,-41.51 969.16,-58.91 1476.6,-53.11 510.93,5.82 967.54,33.49 1474.75,66.22 248.77,16.05 1208.3,166 1356.66,77.26 36.47,-183.38 -125.33,-176.28 -292.26,-225.02 -435.33,-127.11 -839.66,-301.19 -1229.53,-539.61 -489.64,-299.42 -869.38,-747.89 -1066.3,-1290.8 -217.37,-732.4 -173.09,-3607.23 -138.69,-4512.15 102.86,-1897.25 259.13,-1984.29 1873.95,-2816.12 487.37,-251.07 1020.05,-579.8 1370.37,-986.17 378.44,-438.98 659.22,-1113.19 608.25,-1713.17 -1341.72,-980.24 -7070.96,-822.16 -7979.12,28.19z"/>
   <path class="fil1" d="M13004.43 10132.53c403.29,-424.15 1547.95,-163.22 1007.65,328.98 -224.43,31.2 -879.41,-155.48 -1007.65,-328.98zm-1258.65 1969.79c-753.54,73.85 -1049.98,-677.15 -733.9,-1268.79 477.2,-893.22 1296.62,-563.43 1502.5,-701.21 -135.23,-378.8 -1346.96,-142.84 -1709.4,702.49 -146.77,342.35 -151.51,761.29 75.59,1069.95 304.63,413.98 437.28,326.02 878.48,425.53 112.87,76.31 130.46,963.15 1154.73,859.54 696.94,-70.49 951.82,-624.71 1187.23,-834.86 295.62,211.42 424.1,56.24 661.23,-123.05 219.21,362.83 392.03,216.02 680,90.03 335.56,287.76 407.31,77.95 673.75,-53.66 216.53,244.04 587.73,290.67 632.63,-52.75 -252.31,-65.43 -129.29,83.59 -409.05,39.33 -103.67,-386.51 510.63,-1396.03 757.53,-1038.85 82.94,294.44 -55.79,395.91 -180.29,565.08 -87.8,119.3 -153.46,121.36 -123.03,303.99 44.82,268.95 301.28,373.19 544.35,188.18 148.92,-113.34 448.48,-472.29 290.22,-619.89 -237.67,77.31 -276.08,577.49 -554.46,497.67 -71.47,-20.49 -56.8,-45 -34.56,-115.67 109.09,-346.45 662.64,-802.85 -120.16,-1110.64 44.53,-262.25 361.93,-495.68 239.17,-702.49 -203.06,34.53 -524.36,789.83 -699.47,1087.36 -195.41,331.98 -386.78,944.58 -803.99,955.86 -38.23,-454.18 575.02,-969.31 521.04,-1309.83 -237.67,26.67 -326.49,344.31 -547.16,744.56 -124.46,225.77 -333.81,628.93 -627.8,544.11 -219.1,-313.82 291.95,-777.01 396.94,-1096.05 68.77,-209.1 -59.84,-281.35 -198.22,-44.03 -240.59,412.45 -532.36,1165.46 -924.04,1158.94 -35.98,-521.65 1005.75,-1709.92 923.42,-2017.38 -190.96,-56.24 -186.57,78.2 -294.25,267.29l-651.23 1158.08c-267.74,489.75 -583.09,1085.12 -1124.32,1279.33 -782.7,280.91 -1235.6,-314.56 -1163.06,-1055.83 49.81,-508.92 403.38,-1295.64 823.22,-1570.61 403.71,56.88 1150.15,622.68 1464.68,169.97 433.08,-623.31 -928.25,-1442.36 -2018.49,172.37 -422.88,626.32 -332.75,768.84 -489.83,1435.93z"/>
   <path class="fil1" d="M14317.11 2555.98c83.67,-257.91 341.85,-477.76 624.15,-471.69 8.92,363.48 -293.35,508.08 -624.15,471.69zm-3119.58 -212.58c-50.12,-231.98 -415.91,-188.73 -423.82,-673.12 -19.12,-1170.62 1725.95,-783.47 2263.92,-504.69 -15.48,60 -856.03,1484.78 -979.69,1709.66 -268.7,488.66 -668.61,1161.5 -1225.82,956.32 -229.67,-84.52 -375.46,-230.61 -255.38,-485.35 99.67,-211.42 386.49,-160.7 392.67,-411.69 -501.83,-103.97 -919.34,708.7 -347.69,1027.58 962.11,536.69 1619.07,-1059.96 1981.27,-1678.04 250.61,-427.61 413.41,-1022.56 947.92,-1006.67 -104.33,290.26 -403.61,760.79 -568.51,1048.91 -114.56,200.08 -556.38,872.33 -503.25,1035.57 196.24,77.88 283.2,-275.34 523.39,-678.2 161.68,-271.17 373.61,-583.03 716.49,-600.7 -47.26,485.66 -561.72,724.23 -398.3,1199.8 291.47,297.8 436.09,-24.83 647.72,-153.89 209.44,287.71 439.52,396.11 845.03,142.82 178.03,-111.21 592.22,-489.38 418.09,-677.67 -166.26,46.63 -286.87,336.36 -432.99,452.96 -275.48,219.72 -612.93,282.61 -626.16,-152.91 31.67,-36.92 -18.92,-94.35 100.29,-112.39 305.94,-46.37 1065.98,-152.77 804.28,-835.66 -901.45,-308.58 -1036.18,1185.44 -1554.12,1256.56 -212.76,-299.24 469.17,-650.32 359.47,-1192.74 -181.3,-179.56 -212.36,-130.26 -444.62,-66.99l321.29 -613.87c191.44,-0.24 987.01,40.72 848.43,-338.28 -146.85,-159.96 -66.19,185.64 -639.06,156.28 -256.09,-13.13 -482.47,-79.61 -727.7,-139.52 -714.09,-174.39 -2113.82,-787.04 -2582.84,259.15 -226.02,504.08 153.12,1312.67 539.69,1076.77z"/>
   <path class="fil2" d="M13551.79 7425.59c117.39,214.38 62.53,1609.92 46.54,1655.32 -96.71,274.56 -300.04,-46.85 -282.04,250.81 181.89,7.97 611.86,-0.22 772.76,-5.48 -26.78,-220.37 -45.57,-30.71 -268.4,-193.4 -54.55,-206.42 -46.49,-1203.47 -15.01,-1439.53 253.91,386.54 656.04,1599.79 879.32,1661.81 42.28,-47.91 804.66,-1642.31 812.84,-1684.25 28.24,296.07 7.23,676.32 7.94,982.38 2.14,909.77 -260.5,332.28 -306.62,672.99 171.49,19.07 893.04,18.32 1077.37,0 -37.73,-284.35 -277.73,59.78 -315.02,-339.72l-1.7 -1343.27c22.21,-439.23 272.37,-97.03 320.86,-378.2 -153.08,-100.33 -546.73,-48.87 -754.15,-34.4l-718.32 1473.32c-156.38,-161.05 -564.42,-1178.41 -714.62,-1477.15l-783.68 0c4.31,244.11 16.92,89.37 241.93,198.77z"/>
   <path class="fil2" d="M6735.52 7389.2c333.54,-41.18 664.65,26.02 664.97,423.09 0.34,401.65 -332.88,444.88 -665.09,414.67l0.12 -837.76zm-486.45 59.4c53.51,247.84 56.9,1457.47 -5.34,1693.44 -227.33,141.23 -236.47,-26.43 -267.48,184.2 138.8,70.83 870.99,47.17 1065.08,19.33 1.84,-399.66 -379.81,316.64 -299.27,-929.78 304.82,-12.71 619.74,0.06 888.38,-160.24 247.33,-147.59 341.79,-522.03 171.5,-760.6 -270.13,-378.43 -1427.72,-343.15 -1824.36,-263.44 5.87,241.85 31.02,70.95 271.49,217.09z"/>
   <path class="fil2" d="M10004.06 6429.2c161.73,154.25 51.91,235.65 270.97,217.03l13.44 -786.27c-318.81,-23.47 -233.14,620.16 -824.46,665.76 -501.41,38.67 -679.75,-487.84 -688.11,-901.1 -18.71,-925.72 629,-1207.59 1125.56,-690.99 199.33,207.37 112.27,421.01 343.46,421.39l-9.43 -771.37c-230.32,-2.24 -81.13,-3.68 -225.23,156.7 -732.11,-593.99 -1770.45,-25.54 -1742.82,926.91 25.45,877.87 1083.96,1430.68 1736.62,761.94z"/>
   <path class="fil2" d="M15863.32 5914.28c-69.65,144.36 -74.45,582.77 0,719.31 192.94,-18.97 73.52,43.78 162.81,-170.32 261.21,139.35 507.86,331.18 858.59,222.68 306.89,-94.95 504.89,-395.19 457.62,-725.29 -93.12,-650.18 -1321.12,-537.88 -1114.38,-1146.51 134.17,-172.75 377.57,-176.9 567.55,-36.36 231.71,171.39 137.4,374.68 373.18,385.76 59.29,-129.68 60.72,-456.61 0,-587.91 -193.5,13.74 -81.12,-43.02 -172.39,148.47 -337.39,-196.68 -782.68,-409.72 -1071.78,77.44 -438.6,739.05 706.13,1026.73 907.77,1201.84 381.07,330.96 -224.5,802.1 -625.11,371.04 -293.16,-315.45 -75.97,-425.77 -343.86,-460.15z"/>
   <path class="fil2" d="M18810.93 8592.95c-70.17,89.42 -66.04,-27.43 -62.74,354.74 1.13,130.11 -0.89,245.22 8.51,375.92 262.37,-25.57 75.78,-17.32 223.95,-202.5 662.14,810.22 1895.93,-289.68 962.1,-884.47 -255.74,-162.89 -929.91,-348.56 -818.2,-697.71 72.27,-225.89 432.97,-209.32 593.87,-84.23 232.69,180.94 133.77,387.69 389.68,394.36l12.11 -459.89c-20.51,-179.04 -13.44,-78.96 -45.71,-133.19 -182.61,48.66 -52.18,-18.66 -167.74,154.81 -325,-235.02 -749.95,-359.95 -1042.77,34.77 -296.7,399.93 18.85,763.19 360.93,962.44 159.27,92.76 349.26,152.4 498.33,258.11 525.71,372.8 -409.59,944.39 -731.36,186.26 -81.49,-192.03 -18,-200.62 -180.96,-259.42z"/>
   <path class="fil2" d="M11956.69 7894.6l301.22 710.16 -559.73 3.69 258.51 -713.85zm-915.17 1452.62l718.56 11.57c11.71,-245.01 -21.69,-63.28 -207.95,-222.78 -37.11,-167.43 20.59,-193.32 59.67,-361.23l716.39 -6.49c40.4,155.99 124.13,248.18 86.78,389.27 -209.32,134.8 -221.9,-53.5 -213.88,203.63l991.32 -4.08c10.28,-355.92 -74.98,129.56 -325.77,-446.69 -143.28,-329.16 -584.17,-1603.48 -710.84,-1721.17 -173.41,23.71 -137.21,30.27 -303.1,486.28l-469 1215.51c-158.06,392.82 -348.28,236.39 -342.18,456.18z"/>
   <path class="fil2" d="M10257.53 7439.83c71.25,149.3 64.67,1943.37 37.42,2221.02 -25.06,255.22 -147.71,324.17 -367.08,285.49 -73.97,-13.04 -64.12,-37.95 -70.33,-78.71l-31.62 -216.32c-402.95,-259.72 -587.82,317.4 -123.36,443.9 323.29,88.02 743.45,8.59 930.55,-273 293.76,-442.16 -17.06,-2015.02 176.83,-2387.93 225.07,-123.76 215.8,44.65 265.83,-169.23 -172.97,-94.93 -862.57,-61.77 -1096.13,-27.37 1.18,256.02 41.72,57.83 277.89,202.15z"/>
   <path class="fil2" d="M12648.91 5145.21c381.03,5.16 -172.34,-420.26 826.71,-427.83 -1.3,307.42 40.83,1240.68 -16.89,1629.53 -15.28,102.91 -28.73,136.99 -131.57,165.22 -83.2,22.83 -105.95,-4.01 -130.42,26.13 -15.38,18.97 -23.66,58.67 -30.44,143.21 287.03,-0.21 841.08,-2.43 1070.06,-16.25 19.3,-288.92 -234.62,-13.96 -305.24,-288.55l13.87 -1657.16c961.1,12.17 421.77,459.8 803.3,424.03l5.5 -589.07 -2103.08 -6.26 -1.8 597z"/>
   <path class="fil3" d="M6735.4 8226.96c332.21,30.21 665.43,-13.02 665.09,-414.67 -0.32,-397.07 -331.43,-464.27 -664.97,-423.09l-0.12 837.76z"/>
   <path class="fil3" d="M13004.43 10132.53c128.24,173.49 783.22,360.18 1007.65,328.99 540.3,-492.21 -604.36,-753.14 -1007.65,-328.99z"/>
   <path class="fil2" d="M15402.37 4994.73c30.95,478.06 -359.14,218.89 -371.88,540.02 419.83,2.16 705.11,-491.22 490.88,-874 -98.78,-176.51 -394.59,-218.53 -488.41,-27.45 -155.85,317.41 172.74,351.47 369.41,361.43z"/>
   <path class="fil3" d="M17027.43 8605.23l554.42 2.38c-35.86,-175.65 -184.34,-596.12 -286.85,-695.77l-267.57 693.39z"/>
   <path class="fil3" d="M11173.26 5920.63l553.65 0.12c-60.89,-214.89 -155.15,-529.66 -284.95,-676.07l-268.7 675.95z"/>
   <polygon class="fil3" points="11698.18,8608.45 12257.91,8604.76 11956.69,7894.6 "/>
   <polygon class="fil3" points="8382.52,8605.91 8943.46,8606.59 8677.73,7921.62 "/>
   <path class="fil3" d="M14317.11 2555.98c330.8,36.39 633.07,-108.21 624.15,-471.68 -282.3,-6.08 -540.48,213.77 -624.15,471.68z"/>
   <path class="fil4" d="M12078.47 12138.32c186.43,21.59 445.09,-140.71 458.51,-332.69 -157.17,-59.6 -138.71,-3.03 -289.95,91.6 -169.46,106.04 -180.37,56.96 -168.56,241.09z"/>
   <path class="fil2" d="M11441.53 5193.03l301.21 710.16 -559.73 3.69 258.52 -713.85zm-915.17 1452.62l718.55 11.57c11.72,-245.01 -21.69,-63.28 -207.95,-222.78 -37.1,-167.43 20.6,-193.32 59.67,-361.23l716.4 -6.49c40.4,155.99 124.12,248.18 86.78,389.27 -209.33,134.8 -221.9,-53.5 -213.88,203.63l991.31 -4.08c10.29,-355.92 -74.97,129.56 -325.77,-446.69 -143.28,-329.16 -584.16,-1603.48 -710.83,-1721.17 -173.41,23.71 -137.21,30.27 -303.1,486.28l-469.01 1215.51c-158.05,392.82 -348.27,236.39 -342.17,456.18z"/>
   <path class="fil2" d="M17297.42 7904.34l301.21 710.16 -559.73 3.68 258.52 -713.84zm-915.18 1452.61l718.56 11.58c11.72,-245.01 -21.69,-63.29 -207.95,-222.78 -37.1,-167.43 20.6,-193.33 59.67,-361.23l716.4 -6.49c40.4,155.98 124.12,248.18 86.77,389.26 -209.32,134.8 -221.89,-53.5 -213.87,203.63l991.31 -4.08c10.29,-355.92 -74.97,129.56 -325.77,-446.69 -143.28,-329.16 -584.16,-1603.47 -710.84,-1721.16 -173.4,23.71 -137.2,30.27 -303.1,486.28l-469 1215.5c-158.05,392.83 -348.27,236.4 -342.18,456.18z"/>
   <path class="fil2" d="M8649.81 7905.5l301.22 710.16 -559.73 3.69 258.51 -713.85zm-915.17 1452.62l718.56 11.57c11.72,-245.01 -21.69,-63.28 -207.95,-222.78 -37.11,-167.43 20.59,-193.32 59.67,-361.23l716.4 -6.49c40.4,155.99 124.12,248.18 86.77,389.27 -209.32,134.8 -221.9,-53.5 -213.88,203.63l991.32 -4.08c10.28,-355.92 -74.98,129.56 -325.77,-446.7 -143.28,-329.15 -584.16,-1603.47 -710.84,-1721.16 -173.41,23.71 -137.21,30.27 -303.1,486.28l-469 1215.51c-158.06,392.82 -348.28,236.39 -342.18,456.18z"/>
  </g>
 </g>
</svg>
